<?xml version="1.0" encoding="UTF-8"?>
<svg xmlns="http://www.w3.org/2000/svg" version="1.1" viewBox="0 0 345 272">
  <defs>
    <style>
      .cls-1 {
        stroke-linecap: square;
      }

      .cls-1, .cls-2, .cls-3, .cls-4, .cls-5, .cls-6, .cls-7 {
        fill: none;
      }

      .cls-1, .cls-2, .cls-4, .cls-5 {
        stroke: #000;
      }

      .cls-1, .cls-3 {
        stroke-linejoin: round;
      }

      .cls-2, .cls-4, .cls-5, .cls-6, .cls-7 {
        stroke-miterlimit: 10;
      }

      .cls-3, .cls-6 {
        stroke: #d95319;
      }

      .cls-8 {
        fill: #231815;
        font-family: ArialMT, Arial;
        font-size: 14.62px;
      }

      .cls-4 {
        stroke-dasharray: 2 1.5;
      }

      .cls-4, .cls-5 {
        stroke-width: .25px;
      }

      .cls-9 {
        fill: #d95319;
      }

      .cls-7 {
        stroke: #262626;
        stroke-width: .5px;
      }
    </style>
  </defs>
  <!-- Generator: Adobe Illustrator 28.6.0, SVG Export Plug-In . SVG Version: 1.2.0 Build 709)  -->
  <g>
    <g id="_레이어_1" data-name="레이어_1">
      <path class="cls-1" d="M5.6,265.2h325.8M9.67,265.2v3.26M17.82,265.2v3.26M25.96,265.2v3.26M34.11,265.2v3.26M42.25,265.2v3.26M50.4,265.2v3.26M58.54,265.2v3.26M66.69,265.2v3.26M74.83,265.2v3.26M82.98,265.2v3.26M91.12,265.2v3.26M99.27,265.2v3.26M107.41,265.2v3.26M115.56,265.2v3.26M123.7,265.2v3.26M131.85,265.2v3.26M139.99,265.2v3.26M148.14,265.2v3.26M156.28,265.2v3.26M164.43,265.2v3.26M172.57,265.2v3.26M180.72,265.2v3.26M188.86,265.2v3.26M197.01,265.2v3.26M205.15,265.2v3.26M213.3,265.2v3.26M221.44,265.2v3.26M229.59,265.2v3.26M237.73,265.2v3.26M245.88,265.2v3.26M254.02,265.2v3.26M262.17,265.2v3.26M270.31,265.2v3.26M278.46,265.2v3.26M286.6,265.2v3.26M294.75,265.2v3.26M302.89,265.2v3.26M311.04,265.2v3.26M319.18,265.2v3.26M327.33,265.2v3.26"/>
      <path class="cls-1" d="M5.6,265.2V8.4M5.6,265.2h-3.26M5.6,215.82h-3.26M5.6,166.43h-3.26M5.6,117.05h-3.26M5.6,67.66h-3.26M5.6,18.28h-3.26M5.6,240.51h-1.63M5.6,191.12h-1.63M5.6,141.74h-1.63M5.6,92.35h-1.63M5.6,42.97h-1.63"/>
      <path class="cls-3" d="M25.96,54.63v15.41M34.11,109.64v6.99M42.25,134.39v7.68M50.4,150.07v9.75M58.54,163.06v10.54M66.69,172.64v9.44M74.83,180.38v9.41M82.98,184.59v13.92M91.12,185.14v12.92M99.27,197.39v13.89M107.41,192.96v15.02M115.56,204.08v12.82M123.7,205.66v12.96M131.85,206.55v16.75M139.99,209.11v10.74M148.14,210.28v14.79M156.28,211.57v16.03M164.43,216.19v11.67M172.57,219.71v22.34M180.72,216.11v15.49M188.86,217.56v19.45M197.01,218.04v14.37M205.15,216.16v19.25M213.3,218.14v22.52M221.44,218v17.81M229.59,219.14v15.14M237.73,218.78v14.7M245.88,222.09v15.37M254.02,222.92v15.27M262.17,225.66v14.66M270.31,219.5v12.87M278.46,223.96v17.22M286.6,222.61v15.07M294.75,226.36v12.41M302.89,226.12v19.44M311.04,221.67v12.94M319.18,225.06v14.48M327.33,222.98v16.59M25.96,54.63v-15.41M34.11,109.64v-6.99M42.25,134.39v-7.68M50.4,150.07v-9.75M58.54,163.06v-10.54M66.69,172.64v-9.44M74.83,180.38v-9.41M82.98,184.59v-13.92M91.12,185.14v-12.92M99.27,197.39v-13.89M107.41,192.96v-15.02M115.56,204.08v-12.82M123.7,205.66v-12.96M131.85,206.55v-16.75M139.99,209.11v-10.74M148.14,210.28v-14.79M156.28,211.57v-16.03M164.43,216.19v-11.67M172.57,219.71v-22.34M180.72,216.11v-15.49M188.86,217.56v-19.45M197.01,218.04v-14.37M205.15,216.16v-19.25M213.3,218.14v-22.52M221.44,218v-17.81M229.59,219.14v-15.14M237.73,218.78v-14.7M245.88,222.09v-15.37M254.02,222.92v-15.27M262.17,225.66v-14.66M270.31,219.5v-12.87M278.46,223.96v-17.22M286.6,222.61v-15.07M294.75,226.36v-12.41M302.89,226.12v-19.44M311.04,221.67v-12.94M319.18,225.06v-14.48M327.33,222.98v-16.59"/>
      <path class="cls-6" d="M28.96,54.63c0-1.66-1.34-3-3-3s-3,1.34-3,3,1.34,3,3,3,3-1.34,3-3h0ZM37.11,109.64c0-1.66-1.34-3-3-3s-3,1.34-3,3,1.34,3,3,3,3-1.34,3-3h0ZM45.25,134.39c0-1.66-1.34-3-3-3s-3,1.34-3,3,1.34,3,3,3,3-1.34,3-3h0ZM53.4,150.07c0-1.66-1.34-3-3-3s-3,1.34-3,3,1.34,3,3,3,3-1.34,3-3h0ZM61.54,163.06c0-1.66-1.34-3-3-3s-3,1.34-3,3,1.34,3,3,3,3-1.34,3-3h0ZM69.69,172.64c0-1.66-1.34-3-3-3s-3,1.34-3,3,1.34,3,3,3,3-1.34,3-3h0ZM77.83,180.38c0-1.66-1.34-3-3-3s-3,1.34-3,3,1.34,3,3,3,3-1.34,3-3h0ZM85.98,184.59c0-1.66-1.34-3-3-3s-3,1.34-3,3,1.34,3,3,3,3-1.34,3-3h0ZM94.12,185.14c0-1.66-1.34-3-3-3s-3,1.34-3,3,1.34,3,3,3,3-1.34,3-3h0ZM102.27,197.39c0-1.66-1.34-3-3-3s-3,1.34-3,3,1.34,3,3,3,3-1.34,3-3h0ZM110.41,192.96c0-1.66-1.34-3-3-3s-3,1.34-3,3,1.34,3,3,3,3-1.34,3-3h0ZM118.56,204.08c0-1.66-1.34-3-3-3s-3,1.34-3,3,1.34,3,3,3,3-1.34,3-3h0ZM126.7,205.66c0-1.66-1.34-3-3-3s-3,1.34-3,3,1.34,3,3,3,3-1.34,3-3h0ZM134.85,206.55c0-1.66-1.34-3-3-3s-3,1.34-3,3,1.34,3,3,3,3-1.34,3-3h0ZM142.99,209.11c0-1.66-1.34-3-3-3s-3,1.34-3,3,1.34,3,3,3,3-1.34,3-3h0ZM151.14,210.28c0-1.66-1.34-3-3-3s-3,1.34-3,3,1.34,3,3,3,3-1.34,3-3h0ZM159.28,211.57c0-1.66-1.34-3-3-3s-3,1.34-3,3,1.34,3,3,3,3-1.34,3-3h0ZM167.43,216.19c0-1.66-1.34-3-3-3s-3,1.34-3,3,1.34,3,3,3,3-1.34,3-3h0ZM175.57,219.71c0-1.66-1.34-3-3-3s-3,1.34-3,3,1.34,3,3,3,3-1.34,3-3h0ZM183.72,216.11c0-1.66-1.34-3-3-3s-3,1.34-3,3,1.34,3,3,3,3-1.34,3-3h0ZM191.86,217.56c0-1.66-1.34-3-3-3s-3,1.34-3,3,1.34,3,3,3,3-1.34,3-3h0ZM200.01,218.04c0-1.66-1.34-3-3-3s-3,1.34-3,3,1.34,3,3,3,3-1.34,3-3h0ZM208.15,216.16c0-1.66-1.34-3-3-3s-3,1.34-3,3,1.34,3,3,3,3-1.34,3-3h0ZM216.3,218.14c0-1.66-1.34-3-3-3s-3,1.34-3,3,1.34,3,3,3,3-1.34,3-3h0ZM224.44,218c0-1.66-1.34-3-3-3s-3,1.34-3,3,1.34,3,3,3,3-1.34,3-3h0ZM232.59,219.14c0-1.66-1.34-3-3-3s-3,1.34-3,3,1.34,3,3,3,3-1.34,3-3h0ZM240.73,218.78c0-1.66-1.34-3-3-3s-3,1.34-3,3,1.34,3,3,3,3-1.34,3-3h0ZM248.88,222.09c0-1.66-1.34-3-3-3s-3,1.34-3,3,1.34,3,3,3,3-1.34,3-3h0ZM257.02,222.92c0-1.66-1.34-3-3-3s-3,1.34-3,3,1.34,3,3,3,3-1.34,3-3h0ZM265.17,225.66c0-1.66-1.34-3-3-3s-3,1.34-3,3,1.34,3,3,3,3-1.34,3-3h0ZM273.31,219.5c0-1.66-1.34-3-3-3s-3,1.34-3,3,1.34,3,3,3,3-1.34,3-3h0ZM281.46,223.96c0-1.66-1.34-3-3-3s-3,1.34-3,3,1.34,3,3,3,3-1.34,3-3h0ZM289.6,222.61c0-1.66-1.34-3-3-3s-3,1.34-3,3,1.34,3,3,3,3-1.34,3-3h0ZM297.75,226.36c0-1.66-1.34-3-3-3s-3,1.34-3,3,1.34,3,3,3,3-1.34,3-3h0ZM305.89,226.12c0-1.66-1.34-3-3-3s-3,1.34-3,3,1.34,3,3,3,3-1.34,3-3h0ZM314.04,221.67c0-1.66-1.34-3-3-3s-3,1.34-3,3,1.34,3,3,3,3-1.34,3-3h0ZM322.18,225.06c0-1.66-1.34-3-3-3s-3,1.34-3,3,1.34,3,3,3,3-1.34,3-3h0ZM330.33,222.98c0-1.66-1.34-3-3-3s-3,1.34-3,3,1.34,3,3,3,3-1.34,3-3h0Z"/>
      <line class="cls-9" x1="22.96" y1="70.04" x2="28.96" y2="70.04"/>
      <line class="cls-6" x1="22.96" y1="70.04" x2="28.96" y2="70.04"/>
      <line class="cls-9" x1="31.11" y1="116.62" x2="37.11" y2="116.62"/>
      <line class="cls-6" x1="31.11" y1="116.62" x2="37.11" y2="116.62"/>
      <line class="cls-9" x1="39.25" y1="142.07" x2="45.25" y2="142.07"/>
      <line class="cls-6" x1="39.25" y1="142.07" x2="45.25" y2="142.07"/>
      <line class="cls-9" x1="47.4" y1="159.83" x2="53.4" y2="159.83"/>
      <line class="cls-6" x1="47.4" y1="159.83" x2="53.4" y2="159.83"/>
      <line class="cls-9" x1="55.54" y1="173.6" x2="61.54" y2="173.6"/>
      <line class="cls-6" x1="55.54" y1="173.6" x2="61.54" y2="173.6"/>
      <line class="cls-9" x1="63.69" y1="182.09" x2="69.69" y2="182.09"/>
      <line class="cls-6" x1="63.69" y1="182.09" x2="69.69" y2="182.09"/>
      <line class="cls-9" x1="71.83" y1="189.78" x2="77.83" y2="189.78"/>
      <line class="cls-6" x1="71.83" y1="189.78" x2="77.83" y2="189.78"/>
      <line class="cls-9" x1="79.98" y1="198.51" x2="85.98" y2="198.51"/>
      <line class="cls-6" x1="79.98" y1="198.51" x2="85.98" y2="198.51"/>
      <line class="cls-9" x1="88.12" y1="198.06" x2="94.12" y2="198.06"/>
      <line class="cls-6" x1="88.12" y1="198.06" x2="94.12" y2="198.06"/>
      <line class="cls-9" x1="96.27" y1="211.28" x2="102.27" y2="211.28"/>
      <line class="cls-6" x1="96.27" y1="211.28" x2="102.27" y2="211.28"/>
      <line class="cls-9" x1="104.41" y1="207.98" x2="110.41" y2="207.98"/>
      <line class="cls-6" x1="104.41" y1="207.98" x2="110.41" y2="207.98"/>
      <line class="cls-9" x1="112.56" y1="216.9" x2="118.56" y2="216.9"/>
      <line class="cls-6" x1="112.56" y1="216.9" x2="118.56" y2="216.9"/>
      <line class="cls-9" x1="120.7" y1="218.62" x2="126.7" y2="218.62"/>
      <line class="cls-6" x1="120.7" y1="218.62" x2="126.7" y2="218.62"/>
      <line class="cls-9" x1="128.85" y1="223.3" x2="134.85" y2="223.3"/>
      <line class="cls-6" x1="128.85" y1="223.3" x2="134.85" y2="223.3"/>
      <line class="cls-9" x1="136.99" y1="219.86" x2="142.99" y2="219.86"/>
      <line class="cls-6" x1="136.99" y1="219.86" x2="142.99" y2="219.86"/>
      <line class="cls-9" x1="145.14" y1="225.07" x2="151.14" y2="225.07"/>
      <line class="cls-6" x1="145.14" y1="225.07" x2="151.14" y2="225.07"/>
      <line class="cls-9" x1="153.28" y1="227.6" x2="159.28" y2="227.6"/>
      <line class="cls-6" x1="153.28" y1="227.6" x2="159.28" y2="227.6"/>
      <line class="cls-9" x1="161.43" y1="227.85" x2="167.43" y2="227.85"/>
      <line class="cls-6" x1="161.43" y1="227.85" x2="167.43" y2="227.85"/>
      <line class="cls-9" x1="169.57" y1="242.05" x2="175.57" y2="242.05"/>
      <line class="cls-6" x1="169.57" y1="242.05" x2="175.57" y2="242.05"/>
      <line class="cls-9" x1="177.72" y1="231.6" x2="183.72" y2="231.6"/>
      <line class="cls-6" x1="177.72" y1="231.6" x2="183.72" y2="231.6"/>
      <line class="cls-9" x1="185.86" y1="237.01" x2="191.86" y2="237.01"/>
      <line class="cls-6" x1="185.86" y1="237.01" x2="191.86" y2="237.01"/>
      <line class="cls-9" x1="194.01" y1="232.41" x2="200.01" y2="232.41"/>
      <line class="cls-6" x1="194.01" y1="232.41" x2="200.01" y2="232.41"/>
      <line class="cls-9" x1="202.15" y1="235.41" x2="208.15" y2="235.41"/>
      <line class="cls-6" x1="202.15" y1="235.41" x2="208.15" y2="235.41"/>
      <line class="cls-9" x1="210.3" y1="240.65" x2="216.3" y2="240.65"/>
      <line class="cls-6" x1="210.3" y1="240.65" x2="216.3" y2="240.65"/>
      <line class="cls-9" x1="218.44" y1="235.81" x2="224.44" y2="235.81"/>
      <line class="cls-6" x1="218.44" y1="235.81" x2="224.44" y2="235.81"/>
      <line class="cls-9" x1="226.59" y1="234.28" x2="232.59" y2="234.28"/>
      <line class="cls-6" x1="226.59" y1="234.28" x2="232.59" y2="234.28"/>
      <line class="cls-9" x1="234.73" y1="233.48" x2="240.73" y2="233.48"/>
      <line class="cls-6" x1="234.73" y1="233.48" x2="240.73" y2="233.48"/>
      <line class="cls-9" x1="242.88" y1="237.46" x2="248.88" y2="237.46"/>
      <line class="cls-6" x1="242.88" y1="237.46" x2="248.88" y2="237.46"/>
      <line class="cls-9" x1="251.02" y1="238.19" x2="257.02" y2="238.19"/>
      <line class="cls-6" x1="251.02" y1="238.19" x2="257.02" y2="238.19"/>
      <line class="cls-9" x1="259.17" y1="240.32" x2="265.17" y2="240.32"/>
      <line class="cls-6" x1="259.17" y1="240.32" x2="265.17" y2="240.32"/>
      <line class="cls-9" x1="267.31" y1="232.37" x2="273.31" y2="232.37"/>
      <line class="cls-6" x1="267.31" y1="232.37" x2="273.31" y2="232.37"/>
      <line class="cls-9" x1="275.46" y1="241.18" x2="281.46" y2="241.18"/>
      <line class="cls-6" x1="275.46" y1="241.18" x2="281.46" y2="241.18"/>
      <line class="cls-9" x1="283.6" y1="237.68" x2="289.6" y2="237.68"/>
      <line class="cls-6" x1="283.6" y1="237.68" x2="289.6" y2="237.68"/>
      <line class="cls-9" x1="291.75" y1="238.77" x2="297.75" y2="238.77"/>
      <line class="cls-6" x1="291.75" y1="238.77" x2="297.75" y2="238.77"/>
      <line class="cls-9" x1="299.89" y1="245.57" x2="305.89" y2="245.57"/>
      <line class="cls-6" x1="299.89" y1="245.57" x2="305.89" y2="245.57"/>
      <line class="cls-9" x1="308.04" y1="234.61" x2="314.04" y2="234.61"/>
      <line class="cls-6" x1="308.04" y1="234.61" x2="314.04" y2="234.61"/>
      <line class="cls-9" x1="316.18" y1="239.54" x2="322.18" y2="239.54"/>
      <line class="cls-6" x1="316.18" y1="239.54" x2="322.18" y2="239.54"/>
      <line class="cls-9" x1="324.33" y1="239.57" x2="330.33" y2="239.57"/>
      <line class="cls-6" x1="324.33" y1="239.57" x2="330.33" y2="239.57"/>
      <line class="cls-9" x1="22.96" y1="39.22" x2="28.96" y2="39.22"/>
      <line class="cls-6" x1="22.96" y1="39.22" x2="28.96" y2="39.22"/>
      <line class="cls-9" x1="31.11" y1="102.65" x2="37.11" y2="102.65"/>
      <line class="cls-6" x1="31.11" y1="102.65" x2="37.11" y2="102.65"/>
      <line class="cls-9" x1="39.25" y1="126.71" x2="45.25" y2="126.71"/>
      <line class="cls-6" x1="39.25" y1="126.71" x2="45.25" y2="126.71"/>
      <line class="cls-9" x1="47.4" y1="140.32" x2="53.4" y2="140.32"/>
      <line class="cls-6" x1="47.4" y1="140.32" x2="53.4" y2="140.32"/>
      <line class="cls-9" x1="55.54" y1="152.52" x2="61.54" y2="152.52"/>
      <line class="cls-6" x1="55.54" y1="152.52" x2="61.54" y2="152.52"/>
      <line class="cls-9" x1="63.69" y1="163.2" x2="69.69" y2="163.2"/>
      <line class="cls-6" x1="63.69" y1="163.2" x2="69.69" y2="163.2"/>
      <line class="cls-9" x1="71.83" y1="170.97" x2="77.83" y2="170.97"/>
      <line class="cls-6" x1="71.83" y1="170.97" x2="77.83" y2="170.97"/>
      <line class="cls-9" x1="79.98" y1="170.67" x2="85.98" y2="170.67"/>
      <line class="cls-6" x1="79.98" y1="170.67" x2="85.98" y2="170.67"/>
      <line class="cls-9" x1="88.12" y1="172.22" x2="94.12" y2="172.22"/>
      <line class="cls-6" x1="88.12" y1="172.22" x2="94.12" y2="172.22"/>
      <line class="cls-9" x1="96.27" y1="183.49" x2="102.27" y2="183.49"/>
      <line class="cls-6" x1="96.27" y1="183.49" x2="102.27" y2="183.49"/>
      <line class="cls-9" x1="104.41" y1="177.94" x2="110.41" y2="177.94"/>
      <line class="cls-6" x1="104.41" y1="177.94" x2="110.41" y2="177.94"/>
      <line class="cls-9" x1="112.56" y1="191.26" x2="118.56" y2="191.26"/>
      <line class="cls-6" x1="112.56" y1="191.26" x2="118.56" y2="191.26"/>
      <line class="cls-9" x1="120.7" y1="192.71" x2="126.7" y2="192.71"/>
      <line class="cls-6" x1="120.7" y1="192.71" x2="126.7" y2="192.71"/>
      <line class="cls-9" x1="128.85" y1="189.8" x2="134.85" y2="189.8"/>
      <line class="cls-6" x1="128.85" y1="189.8" x2="134.85" y2="189.8"/>
      <line class="cls-9" x1="136.99" y1="198.37" x2="142.99" y2="198.37"/>
      <line class="cls-6" x1="136.99" y1="198.37" x2="142.99" y2="198.37"/>
      <line class="cls-9" x1="145.14" y1="195.49" x2="151.14" y2="195.49"/>
      <line class="cls-6" x1="145.14" y1="195.49" x2="151.14" y2="195.49"/>
      <line class="cls-9" x1="153.28" y1="195.54" x2="159.28" y2="195.54"/>
      <line class="cls-6" x1="153.28" y1="195.54" x2="159.28" y2="195.54"/>
      <line class="cls-9" x1="161.43" y1="204.52" x2="167.43" y2="204.52"/>
      <line class="cls-6" x1="161.43" y1="204.52" x2="167.43" y2="204.52"/>
      <line class="cls-9" x1="169.57" y1="197.38" x2="175.57" y2="197.38"/>
      <line class="cls-6" x1="169.57" y1="197.38" x2="175.57" y2="197.38"/>
      <line class="cls-9" x1="177.72" y1="200.62" x2="183.72" y2="200.62"/>
      <line class="cls-6" x1="177.72" y1="200.62" x2="183.72" y2="200.62"/>
      <line class="cls-9" x1="185.86" y1="198.12" x2="191.86" y2="198.12"/>
      <line class="cls-6" x1="185.86" y1="198.12" x2="191.86" y2="198.12"/>
      <line class="cls-9" x1="194.01" y1="203.67" x2="200.01" y2="203.67"/>
      <line class="cls-6" x1="194.01" y1="203.67" x2="200.01" y2="203.67"/>
      <line class="cls-9" x1="202.15" y1="196.91" x2="208.15" y2="196.91"/>
      <line class="cls-6" x1="202.15" y1="196.91" x2="208.15" y2="196.91"/>
      <line class="cls-9" x1="210.3" y1="195.62" x2="216.3" y2="195.62"/>
      <line class="cls-6" x1="210.3" y1="195.62" x2="216.3" y2="195.62"/>
      <line class="cls-9" x1="218.44" y1="200.19" x2="224.44" y2="200.19"/>
      <line class="cls-6" x1="218.44" y1="200.19" x2="224.44" y2="200.19"/>
      <line class="cls-9" x1="226.59" y1="204" x2="232.59" y2="204"/>
      <line class="cls-6" x1="226.59" y1="204" x2="232.59" y2="204"/>
      <line class="cls-9" x1="234.73" y1="204.08" x2="240.73" y2="204.08"/>
      <line class="cls-6" x1="234.73" y1="204.08" x2="240.73" y2="204.08"/>
      <line class="cls-9" x1="242.88" y1="206.72" x2="248.88" y2="206.72"/>
      <line class="cls-6" x1="242.88" y1="206.72" x2="248.88" y2="206.72"/>
      <line class="cls-9" x1="251.02" y1="207.66" x2="257.02" y2="207.66"/>
      <line class="cls-6" x1="251.02" y1="207.66" x2="257.02" y2="207.66"/>
      <line class="cls-9" x1="259.17" y1="211" x2="265.17" y2="211"/>
      <line class="cls-6" x1="259.17" y1="211" x2="265.17" y2="211"/>
      <line class="cls-9" x1="267.31" y1="206.63" x2="273.31" y2="206.63"/>
      <line class="cls-6" x1="267.31" y1="206.63" x2="273.31" y2="206.63"/>
      <line class="cls-9" x1="275.46" y1="206.74" x2="281.46" y2="206.74"/>
      <line class="cls-6" x1="275.46" y1="206.74" x2="281.46" y2="206.74"/>
      <line class="cls-9" x1="283.6" y1="207.54" x2="289.6" y2="207.54"/>
      <line class="cls-6" x1="283.6" y1="207.54" x2="289.6" y2="207.54"/>
      <line class="cls-9" x1="291.75" y1="213.95" x2="297.75" y2="213.95"/>
      <line class="cls-6" x1="291.75" y1="213.95" x2="297.75" y2="213.95"/>
      <line class="cls-9" x1="299.89" y1="206.68" x2="305.89" y2="206.68"/>
      <line class="cls-6" x1="299.89" y1="206.68" x2="305.89" y2="206.68"/>
      <line class="cls-9" x1="308.04" y1="208.73" x2="314.04" y2="208.73"/>
      <line class="cls-6" x1="308.04" y1="208.73" x2="314.04" y2="208.73"/>
      <line class="cls-9" x1="316.18" y1="210.58" x2="322.18" y2="210.58"/>
      <line class="cls-6" x1="316.18" y1="210.58" x2="322.18" y2="210.58"/>
      <line class="cls-9" x1="324.33" y1="206.4" x2="330.33" y2="206.4"/>
      <line class="cls-6" x1="324.33" y1="206.4" x2="330.33" y2="206.4"/>
      <g>
        <text class="cls-8" transform="translate(187.22 32.36)"><tspan x="0" y="0">Human Data</tspan></text>
        <path class="cls-2" d="M162.32,25.01l6.89,6.89M162.32,31.91l6.89-6.89"/>
      </g>
      <g>
        <text class="cls-8" transform="translate(187.22 51.28)"><tspan x="0" y="0">Simulation Data</tspan></text>
        <path class="cls-6" d="M170.64,47.38c0-2.69-2.18-4.87-4.87-4.87s-4.87,2.18-4.87,4.87,2.18,4.87,4.87,4.87,4.87-2.18,4.87-4.87h0Z"/>
      </g>
      <rect class="cls-7" x="154" y="15.95" width="164.5" height="60.55"/>
      <g>
        <line class="cls-5" x1="5.6" y1="166.42" x2="331.4" y2="166.42"/>
        <line class="cls-4" x1="5.6" y1="167.54" x2="331.4" y2="167.54"/>
        <line class="cls-4" x1="5.6" y1="165.29" x2="331.4" y2="165.29"/>
      </g>
      <line class="cls-6" x1="160.9" y1="73.94" x2="170.64" y2="73.94"/>
      <line class="cls-6" x1="160.9" y1="59.2" x2="170.64" y2="59.2"/>
      <line class="cls-3" x1="165.77" y1="73.68" x2="165.77" y2="58.94"/>
      <text class="cls-8" transform="translate(187.22 70.21)"><tspan x="0" y="0">Standard Deviation</tspan></text>
      <path class="cls-2" d="M23.84,30.48l4.24,4.24M23.84,34.72l4.24-4.24M31.99,86.15l4.24,4.24M31.99,90.4l4.24-4.24M40.13,115.56l4.24,4.24M40.13,119.8l4.24-4.24M48.28,131.66l4.24,4.24M48.28,135.9l4.24-4.24M56.42,151.96l4.24,4.24M56.42,156.2l4.24-4.24M64.57,158.95l4.24,4.24M64.57,163.19l4.24-4.24M72.71,167.69l4.24,4.24M72.71,171.93l4.24-4.24M80.86,168.38l4.24,4.24M80.86,172.62l4.24-4.24M89,176.07l4.24,4.24M89,180.31l4.24-4.24M97.15,178.16l4.24,4.24M97.15,182.4l4.24-4.24M105.29,190.05l4.24,4.24M105.29,194.29l4.24-4.24M113.44,200.55l4.24,4.24M113.44,204.79l4.24-4.24M121.58,197.38l4.24,4.24M121.58,201.62l4.24-4.24M129.73,204.72l4.24,4.24M129.73,208.96l4.24-4.24M137.87,205.06l4.24,4.24M137.87,209.3l4.24-4.24M146.02,201.89l4.24,4.24M146.02,206.13l4.24-4.24M154.16,202.58l4.24,4.24M154.16,206.82l4.24-4.24M162.31,214.12l4.24,4.24M162.31,218.36l4.24-4.24M170.45,213.06l4.24,4.24M170.45,217.3l4.24-4.24M178.6,204.99l4.24,4.24M178.6,209.23l4.24-4.24M186.74,213.38l4.24,4.24M186.74,217.62l4.24-4.24M194.89,217.57l4.24,4.24M194.89,221.81l4.24-4.24M203.03,217.55l4.24,4.24M203.03,221.8l4.24-4.24M211.18,222.09l4.24,4.24M211.18,226.33l4.24-4.24M219.32,219.98l4.24,4.24M219.32,224.22l4.24-4.24M227.47,222.41l4.24,4.24M227.47,226.66l4.24-4.24M235.61,224.15l4.24,4.24M235.61,228.4l4.24-4.24M243.76,219.58l4.24,4.24M243.76,223.83l4.24-4.24M251.9,220.27l4.24,4.24M251.9,224.51l4.24-4.24M260.05,221.31l4.24,4.24M260.05,225.55l4.24-4.24M268.19,213.24l4.24,4.24M268.19,217.48l4.24-4.24M276.34,219.53l4.24,4.24M276.34,223.77l4.24-4.24M284.48,218.46l4.24,4.24M284.48,222.71l4.24-4.24M292.63,213.55l4.24,4.24M292.63,217.79l4.24-4.24M300.77,218.44l4.24,4.24M300.77,222.68l4.24-4.24M308.92,220.52l4.24,4.24M308.92,224.77l4.24-4.24M317.06,219.46l4.24,4.24M317.06,223.7l4.24-4.24M325.21,225.4l4.24,4.24M325.21,229.64l4.24-4.24"/>
    </g>
  </g>
</svg>